<?xml version="1.0" encoding="utf-8"?><svg xmlns="http://www.w3.org/2000/svg" xmlns:xlink="http://www.w3.org/1999/xlink" width="167px" height="167px" viewBox="0 0 100 100" preserveAspectRatio="xMidYMid" style="margin-right:-2px;display:block;background-repeat-y:initial;background-repeat-x:initial;animation-play-state:paused" ><g transform="rotate(0 50 50)" style="transform:matrix(1, 0, 0, 1, 0, 0);animation-play-state:paused" ><rect x="47.5" y="24.5" rx="2.5" ry="5.28" width="5" height="11" fill="#fe718d" opacity="0.083334" style="opacity:0.083334;animation-play-state:paused" ></rect></g>
<g transform="rotate(30 50 50)" style="transform:matrix(0.866025, 0.5, -0.5, 0.866025, 31.6987, -18.3013);animation-play-state:paused" ><rect x="47.5" y="24.5" rx="2.5" ry="5.28" width="5" height="11" fill="#fe718d" opacity="0.166667" style="opacity:0.166667;animation-play-state:paused" ></rect></g>
<g transform="rotate(60 50 50)" style="transform:matrix(0.5, 0.866025, -0.866025, 0.5, 68.3013, -18.3013);animation-play-state:paused" ><rect x="47.5" y="24.5" rx="2.5" ry="5.28" width="5" height="11" fill="#fe718d" opacity="0.25" style="opacity:0.25;animation-play-state:paused" ></rect></g>
<g transform="rotate(90 50 50)" style="transform:matrix(0, 1, -1, 0, 100, 0);animation-play-state:paused" ><rect x="47.5" y="24.5" rx="2.5" ry="5.28" width="5" height="11" fill="#fe718d" opacity="0.333334" style="opacity:0.333334;animation-play-state:paused" ></rect></g>
<g transform="rotate(120 50 50)" style="transform:matrix(-0.5, 0.866025, -0.866025, -0.5, 118.301, 31.6987);animation-play-state:paused" ><rect x="47.5" y="24.5" rx="2.5" ry="5.28" width="5" height="11" fill="#fe718d" opacity="0.416667" style="opacity:0.416667;animation-play-state:paused" ></rect></g>
<g transform="rotate(150 50 50)" style="transform:matrix(-0.866025, 0.5, -0.5, -0.866025, 118.301, 68.3013);animation-play-state:paused" ><rect x="47.5" y="24.5" rx="2.5" ry="5.28" width="5" height="11" fill="#fe718d" opacity="0.5" style="opacity:0.5;animation-play-state:paused" ></rect></g>
<g transform="rotate(180 50 50)" style="transform:matrix(-1, 0, 0, -1, 100, 100);animation-play-state:paused" ><rect x="47.5" y="24.5" rx="2.5" ry="5.28" width="5" height="11" fill="#fe718d" opacity="0.583334" style="opacity:0.583334;animation-play-state:paused" ></rect></g>
<g transform="rotate(210 50 50)" style="transform:matrix(-0.866025, -0.5, 0.5, -0.866025, 68.3013, 118.301);animation-play-state:paused" ><rect x="47.5" y="24.5" rx="2.5" ry="5.28" width="5" height="11" fill="#fe718d" opacity="0.666667" style="opacity:0.666667;animation-play-state:paused" ></rect></g>
<g transform="rotate(240 50 50)" style="transform:matrix(-0.5, -0.866025, 0.866025, -0.5, 31.6987, 118.301);animation-play-state:paused" ><rect x="47.5" y="24.5" rx="2.5" ry="5.28" width="5" height="11" fill="#fe718d" opacity="0.75" style="opacity:0.75;animation-play-state:paused" ></rect></g>
<g transform="rotate(270 50 50)" style="transform:matrix(0, -1, 1, 0, 0, 100);animation-play-state:paused" ><rect x="47.5" y="24.5" rx="2.5" ry="5.28" width="5" height="11" fill="#fe718d" opacity="0.833334" style="opacity:0.833334;animation-play-state:paused" ></rect></g>
<g transform="rotate(300 50 50)" style="transform:matrix(0.5, -0.866025, 0.866025, 0.5, -18.3013, 68.3013);animation-play-state:paused" ><rect x="47.5" y="24.5" rx="2.5" ry="5.28" width="5" height="11" fill="#fe718d" opacity="0.916667" style="opacity:0.916667;animation-play-state:paused" ></rect></g>
<g transform="rotate(330 50 50)" style="transform:matrix(0.866025, -0.5, 0.5, 0.866025, -18.3013, 31.6987);animation-play-state:paused" ><rect x="47.5" y="24.5" rx="2.5" ry="5.28" width="5" height="11" fill="#fe718d" opacity="1" style="animation-play-state:paused" ></rect></g><!-- generated by https://loading.io/ --></svg>